<?xml version="1.0" encoding="utf-8"?>
<!-- Svg Vector Icons : http://www.onlinewebfonts.com/icon -->
<!DOCTYPE svg PUBLIC "-//W3C//DTD SVG 1.1//EN" "http://www.w3.org/Graphics/SVG/1.1/DTD/svg11.dtd">
<svg version="1.1" xmlns="http://www.w3.org/2000/svg" xmlns:xlink="http://www.w3.org/1999/xlink" x="0px" y="0px" viewBox="0 0 256 256" enable-background="new 0 0 256 256" xml:space="preserve">
<metadata> Svg Vector Icons : http://www.onlinewebfonts.com/icon </metadata>
<g><g><path fill="#000000" d="M215.1,69.5C202.2,58.5,188.5,50.4,174,45c-14.6-5.4-28.7-8.2-42.5-8.2c-13.6,0-27.6,2.7-42.2,8.2c-14.5,5.4-28.2,13.6-41,24.5v-9.1c23.9-23.8,51.8-35.7,83.3-35.7c31.8,0,59.7,11.9,83.7,35.7v9.1H215.1z"/><path fill="#000000" d="M90,136.4c-1-7-3.7-12.2-8.5-15.7c-4.7-3.5-11.2-5.2-19.6-5.2c-8.3,0-15,1.4-20,4.2c-5.1,2.9-7.7,6.9-7.7,12.2c0,5,2.1,8.7,6.1,10.8c4,2.2,12,4.8,24,8c13.5,3.4,23.5,6.5,30.2,9.2c6.7,2.6,11.9,6.4,15.7,11.1c3.7,4.7,5.6,11.4,5.6,19.9c0,11.4-4.6,20.9-14,28.7c-9.3,7.8-21.7,11.6-37.3,11.6c-16.1,0-28.8-3.4-37.9-10.2c-9.1-6.9-14.7-17.1-16.8-30.8l21.5-3.3c1.2,8.9,4.4,15.6,9.9,20c5.5,4.4,13.2,6.6,23,6.6c9.4,0,16.7-2,21.7-5.9c5-3.9,7.6-8.8,7.6-14.5c0-3.8-1.2-6.9-3.4-9.2c-2.4-2.4-5.2-4-8.8-5.2c-3.4-1.2-11.3-3.3-23.4-6.2c-18.1-4.3-30-9.5-35.8-15.8c-5.8-6.2-8.7-13.6-8.7-22.2c0-10.6,4.2-19.4,12.7-26.3C34.8,101.5,46.2,98,60.5,98c15.1,0,27.1,3,35.5,9c8.5,6,13.6,14.9,15.1,26.8L90,136.4z"/><path fill="#000000" d="M246,228.2h-21.7v-80.5c0-10.4-2.3-18.2-6.7-23.4c-4.5-5.2-11.2-7.8-20.1-7.8c-8.9,0-16.7,3.1-23.6,9.2s-10.4,17.1-10.4,32.9v69.7h-21.6V52.1h21.6v63.2c10.2-11.6,23-17.4,38.5-17.4c8.3,0,16.1,1.7,23.7,5c7.6,3.3,12.8,8.6,15.8,15.5c3.1,6.9,4.5,16.6,4.5,29V228.2z"/></g></g>
</svg>